<?xml version="1.0" encoding="UTF-8"?>
<svg xmlns="http://www.w3.org/2000/svg" xmlns:xlink="http://www.w3.org/1999/xlink" width="40px" height="40px" viewBox="0 0 40 40" version="1.1">
<g id="surface1">
<path style="fill:none;stroke-width:1;stroke-linecap:round;stroke-linejoin:round;stroke:rgb(0%,0%,0%);stroke-opacity:1;stroke-miterlimit:10;" d="M 20.397656 9.888281 C 20.41875 5.625 14.90625 4.057031 12.611719 7.514062 C 10.6125 4.485937 6.060937 4.835156 4.553906 8.153906 C 4.551563 8.153906 4.546875 8.153906 4.544531 8.153906 C 1.914844 8.690625 0.217969 11.257031 0.754687 13.886719 C 1.258594 16.366406 3.571875 18.016406 6.039844 17.744531 C 7.385156 19.504687 9.904687 20.069531 11.913281 18.76875 C 14.542969 23.772656 22.251562 21.304688 21.384375 15.651562 C 24.492188 14.53125 23.692969 9.911719 20.397656 9.888281 Z M 20.397656 9.888281 " transform="matrix(1.666667,0,0,1.666667,0,0)"/>
<path style="fill:none;stroke-width:1;stroke-linecap:round;stroke-linejoin:round;stroke:rgb(0%,0%,0%);stroke-opacity:1;stroke-miterlimit:4;" d="M 9.239062 11.050781 C 8.824219 10.642969 8.261719 10.392188 7.642969 10.392188 C 6.367969 10.392188 5.334375 11.451562 5.334375 12.757031 C 5.334375 14.064844 6.367969 15.124219 7.642969 15.124219 C 8.2875 15.124219 8.86875 14.852344 9.285937 14.41875 " transform="matrix(1.666667,0,0,1.666667,0,0)"/>
<path style="fill:none;stroke-width:1;stroke-linecap:round;stroke-linejoin:round;stroke:rgb(0%,0%,0%);stroke-opacity:1;stroke-miterlimit:4;" d="M 15.107812 12.761719 C 15.107812 11.453906 14.116406 10.392188 12.892969 10.392188 C 11.669531 10.392188 10.675781 11.453906 10.675781 12.761719 C 10.675781 14.071875 11.669531 15.13125 12.892969 15.13125 C 14.116406 15.13125 15.107812 14.071875 15.107812 12.761719 Z M 15.107812 12.761719 " transform="matrix(1.666667,0,0,1.666667,0,0)"/>
<path style="fill:none;stroke-width:1;stroke-linecap:round;stroke-linejoin:round;stroke:rgb(0%,0%,0%);stroke-opacity:1;stroke-miterlimit:10;" d="M 18.307031 16.63125 L 16.392187 16.63125 L 17.786719 15.311719 C 19.066406 14.11875 17.329687 12.904687 16.48125 14.252344 " transform="matrix(1.666667,0,0,1.666667,0,0)"/>
</g>
</svg>
