<?xml version="1.0" encoding="UTF-8"?>
<svg xmlns="http://www.w3.org/2000/svg" xmlns:xlink="http://www.w3.org/1999/xlink" width="40px" height="40px" viewBox="0 0 40 40" version="1.1">
<g id="surface1">
<path style=" stroke:none;fill-rule:evenodd;fill:rgb(0%,0%,0%);fill-opacity:1;" d="M 21.667969 33.332031 C 21.667969 31.996094 20.980469 30.125 19.757812 27.636719 C 19.515625 27.140625 19.25 26.628906 18.972656 26.101562 C 18.414062 25.042969 17.816406 23.980469 17.21875 22.960938 C 17.011719 22.605469 16.816406 22.277344 16.640625 21.988281 C 16.535156 21.816406 16.460938 21.691406 16.417969 21.621094 C 15.765625 20.570312 14.234375 20.570312 13.582031 21.621094 C 13.539062 21.691406 13.464844 21.816406 13.359375 21.988281 C 13.183594 22.277344 12.988281 22.605469 12.78125 22.960938 C 12.183594 23.980469 11.585938 25.042969 11.027344 26.101562 C 10.75 26.628906 10.484375 27.140625 10.242188 27.636719 C 9.019531 30.125 8.332031 31.996094 8.332031 33.332031 C 8.332031 37.015625 11.316406 40 15 40 C 18.683594 40 21.667969 37.015625 21.667969 33.332031 Z M 11.667969 33.332031 C 11.667969 32.695312 12.242188 31.121094 13.234375 29.109375 C 13.460938 28.644531 13.710938 28.160156 13.972656 27.660156 C 14.507812 26.648438 15.007812 25.800781 15.007812 25.800781 C 15.007812 25.800781 15.699219 27.042969 16.027344 27.660156 C 16.289062 28.160156 16.539062 28.644531 16.765625 29.109375 C 17.757812 31.121094 18.332031 32.695312 18.332031 33.332031 C 18.332031 35.175781 16.839844 36.667969 15 36.667969 C 13.160156 36.667969 11.667969 35.175781 11.667969 33.332031 Z M 11.667969 33.332031 "/>
<path style=" stroke:none;fill-rule:evenodd;fill:rgb(0%,0%,0%);fill-opacity:1;" d="M 11.667969 11.964844 C 11.667969 10.824219 11.074219 9.292969 10.003906 7.222656 C 9.808594 6.839844 9.597656 6.445312 9.375 6.042969 C 8.90625 5.191406 8.40625 4.335938 7.910156 3.515625 C 7.734375 3.226562 7.570312 2.964844 7.425781 2.730469 C 7.335938 2.589844 7.273438 2.488281 7.234375 2.433594 C 6.582031 1.410156 5.085938 1.410156 4.429688 2.433594 C 4.394531 2.488281 4.332031 2.589844 4.242188 2.730469 C 4.097656 2.964844 3.933594 3.226562 3.757812 3.515625 C 3.257812 4.335938 2.757812 5.191406 2.289062 6.042969 C 2.066406 6.445312 1.859375 6.839844 1.660156 7.222656 C 0.59375 9.292969 0 10.824219 0 11.964844 C 0 15.050781 2.636719 17.5 5.832031 17.5 C 9.027344 17.5 11.667969 15.050781 11.667969 11.964844 Z M 3.332031 11.964844 C 3.332031 11.558594 3.8125 10.320312 4.625 8.75 C 4.804688 8.394531 5 8.03125 5.210938 7.652344 C 5.652344 6.847656 5.851562 6.578125 5.851562 6.578125 C 5.851562 6.578125 6.261719 7.296875 6.457031 7.652344 C 6.664062 8.03125 6.859375 8.394531 7.042969 8.75 C 7.851562 10.320312 8.332031 11.558594 8.332031 11.964844 C 8.332031 13.152344 7.242188 14.167969 5.832031 14.167969 C 4.425781 14.167969 3.332031 13.152344 3.332031 11.964844 Z M 3.332031 11.964844 "/>
<path style=" stroke:none;fill-rule:evenodd;fill:rgb(0%,0%,0%);fill-opacity:1;" d="M 40 16.667969 C 40 14.871094 39.046875 12.375 37.359375 9.179688 C 36.949219 8.40625 36.503906 7.601562 36.023438 6.777344 C 35.1875 5.335938 34.296875 3.894531 33.402344 2.519531 C 33.089844 2.039062 32.800781 1.601562 32.539062 1.210938 C 32.382812 0.976562 32.265625 0.808594 32.203125 0.71875 C 31.542969 -0.238281 30.125 -0.238281 29.460938 0.71875 C 29.398438 0.808594 29.285156 0.976562 29.128906 1.210938 C 28.867188 1.601562 28.578125 2.039062 28.265625 2.519531 C 27.371094 3.894531 26.476562 5.335938 25.640625 6.777344 C 25.164062 7.601562 24.714844 8.40625 24.308594 9.179688 C 22.621094 12.375 21.667969 14.871094 21.667969 16.667969 C 21.667969 21.730469 25.769531 25.832031 30.832031 25.832031 C 35.894531 25.832031 40 21.730469 40 16.667969 Z M 25 16.667969 C 25 15.597656 25.820312 13.457031 27.257812 10.734375 C 27.640625 10.003906 28.066406 9.238281 28.523438 8.449219 C 29.328125 7.0625 30.847656 4.707031 30.847656 4.707031 C 30.847656 4.707031 32.410156 7.191406 33.140625 8.449219 C 33.597656 9.238281 34.023438 10.003906 34.410156 10.734375 C 35.847656 13.457031 36.667969 15.597656 36.667969 16.667969 C 36.667969 19.886719 34.054688 22.5 30.832031 22.5 C 27.613281 22.5 25 19.886719 25 16.667969 Z M 25 16.667969 "/>
</g>
</svg>
